# xmcd CD database file
#
# Track frame offsets:
#	150
#	18381
#	37873
#	59607
#	72137
#	93380
#	111029
#	132564
#	143212
#	162567
#	180195
#	190827
#
# Disc length: 2813 seconds
#
# Revision: 1
# Processed by: cddbd v1.5.2PL0 Copyright (c) Steve Scherf et al.
# Submitted via: Feurio! 1.68 - http://www.feurio.com
#
DISCID=a20afb0c
DTITLE=Jeremy Spencer - Precious Little
DYEAR=1900
DGENRE=Blues
TTITLE0=Bitter Lemon
TTITLE1=Psychic Waste
TTITLE2=It Hurts Me Too
TTITLE3=Please Don't Stop
TTITLE4=Serene Serena
TTITLE5=Dr. J
TTITLE6=Bleeding Heart
TTITLE7=Many Sparrows
TTITLE8=Trouble and Woe
TTITLE9=Maria de Santiago
TTITLE10=Take and Give
TTITLE11=Precious Little
EXTD=
EXTT0=
EXTT1=
EXTT2=
EXTT3=
EXTT4=
EXTT5=
EXTT6=
EXTT7=
EXTT8=
EXTT9=
EXTT10=
EXTT11=
PLAYORDER=
